<svg xmlns="http://www.w3.org/2000/svg" width="103" height="76" fill="none" viewBox="0 0 103 76"><rect width="101.682" height="74.3" x=".703" y=".811" fill="#fff" stroke="#E2E6EF" rx="4.5"/><rect width="31.497" height="29.367" x="12.466" y="19.701" fill="#E2E6EF" rx="5"/><rect width="14.304" height="6.161" x="51.092" y="20.228" fill="#E2E6EF" rx="3.08"/><rect width="39.53" height="6.161" x="51.092" y="29.729" fill="#E2E6EF" rx="3.08"/><rect width="39.53" height="6.161" x="51.092" y="39.518" fill="#E2E6EF" rx="3.08"/><path fill="#3291E9" d="M51.0918 53.1405C51.0918 51.4392 52.471 50.0601 54.1723 50.0601H62.3154C64.0167 50.0601 65.3959 51.4392 65.3959 53.1405C65.3959 54.8418 64.0167 56.221 62.3154 56.221H54.1723C52.471 56.221 51.0918 54.8418 51.0918 53.1405Z"/><path stroke="#3291E9" d="M67.4014 53.1405C67.4014 51.7154 68.5567 50.5601 69.9818 50.5601H78.125C79.5501 50.5601 80.7054 51.7154 80.7054 53.1405C80.7054 54.5657 79.5501 55.721 78.125 55.721H69.9818C68.5567 55.721 67.4014 54.5657 67.4014 53.1405Z"/></svg>