<svg xmlns="http://www.w3.org/2000/svg" width="104" height="76" fill="none" viewBox="0 0 104 76"><rect width="58.524" height="41.592" x=".976" y=".811" fill="#fff" stroke="#E2E6EF" rx="4.5"/><rect width="11.434" height="11.436" x="24.521" y="5.811" fill="#E2E6EF" rx="5.717"/><rect width="39.53" height="6.161" x="10.474" y="21.164" fill="#E2E6EF" rx="3.08"/><path fill="#3291E9" d="M23.0859 34.322C23.0859 32.6207 24.4651 31.2416 26.1664 31.2416H34.3095C36.0108 31.2416 37.39 32.6207 37.39 34.322C37.39 36.0233 36.0108 37.4025 34.3095 37.4025H26.1664C24.4651 37.4025 23.0859 36.0233 23.0859 34.322Z"/><rect width="58.524" height="41.592" x="22.554" y="21.664" fill="#fff" stroke="#E2E6EF" rx="4.5"/><rect width="11.434" height="11.436" x="46.099" y="26.664" fill="#E2E6EF" rx="5.717"/><rect width="39.53" height="6.161" x="32.051" y="42.017" fill="#E2E6EF" rx="3.08"/><path fill="#3291E9" d="M44.6631 55.1749C44.6631 53.4736 46.0423 52.0945 47.7435 52.0945H55.8867C57.588 52.0945 58.9671 53.4736 58.9671 55.1749C58.9671 56.8762 57.588 58.2554 55.8867 58.2554H47.7435C46.0423 58.2554 44.6631 56.8762 44.6631 55.1749Z"/><rect width="58.524" height="41.592" x="44.133" y="33.519" fill="#fff" stroke="#E2E6EF" rx="4.5"/><rect width="11.434" height="11.436" x="67.678" y="38.519" fill="#E2E6EF" rx="5.717"/><rect width="39.53" height="6.161" x="53.63" y="53.872" fill="#E2E6EF" rx="3.08"/><path fill="#3291E9" d="M66.2422 67.0304C66.2422 65.3291 67.6214 63.95 69.3226 63.95H77.4658C79.1671 63.95 80.5462 65.3291 80.5462 67.0304C80.5462 68.7317 79.1671 70.1109 77.4658 70.1109H69.3226C67.6214 70.1109 66.2422 68.7317 66.2422 67.0304Z"/></svg>